<svg width="118" height="74" viewBox="0 0 118 74" fill="none" xmlns="http://www.w3.org/2000/svg">
<path d="M100.448 47.5695C99.2345 49.1935 96.9505 49.4718 95.4183 50.763C94.8703 50.8376 95.1285 50.6626 95.0425 50.3957C94.7527 49.4833 94.2735 48.6139 94.0698 47.9282C93.9321 47.4691 94.1501 47.6039 94.4284 47.5666C96.1672 47.3314 98.6233 47.8191 100.448 47.5666V47.5695Z" fill="#59ADAD"/>
<path d="M20.3939 48.0541C20.414 48.0398 20.3279 47.6266 20.5575 47.5635C21.1944 47.3884 22.3708 47.6897 23.0996 47.5692C22.5114 48.4529 22.2733 49.4543 21.8945 50.4184C21.7941 50.6709 22.0265 50.8373 21.5072 50.7541C20.0496 49.3367 17.8374 49.0555 16.4688 47.5692C17.4242 47.6725 18.6178 47.4114 19.5331 47.5721C19.8889 47.6352 20.3136 48.1115 20.391 48.0541H20.3939Z" fill="#59ADAD"/>
<path d="M92.837 48.0571C91.8959 50.2636 92.0881 52.3496 94.3348 53.5547C94.7279 53.767 95.9588 53.767 95.7608 54.2892C95.4997 54.9778 93.0006 58.0078 92.3521 58.7394C74.3532 79.1141 43.0781 79.0596 25.059 58.7394C24.3475 57.9389 21.9574 55.0926 21.6503 54.2892C21.4524 53.7727 22.6804 53.7526 23.0764 53.5518C25.2427 52.45 25.5411 50.1345 24.577 48.0571H33.0471C45.6317 65.2728 71.788 65.2929 84.3669 48.0571H92.837Z" fill="#22445F"/>
<path d="M59.1971 52.2292C59.3348 52.3669 62.9501 52.08 63.0993 51.9566C63.4236 51.6926 63.9572 47.7301 64.1208 47.5781C64.2212 47.4862 64.8381 47.6039 65.0877 47.5666L64.1064 51.7356C64.686 51.7184 66.6429 51.6094 66.7892 51.0958C66.9355 50.5822 66.1264 49.9452 67.168 49.0299C68.3444 47.997 69.4261 48.9037 70.0975 48.7487C70.7172 48.6053 70.4274 47.0702 71.7158 47.5637L70.9812 49.2738C71.3198 49.2193 71.6268 49.6669 71.8449 49.6784C72.7774 49.7329 75.9049 46.964 77.3682 47.5637C75.245 50.5478 72.8061 53.6609 69.5121 55.4198C69.4433 55.8186 69.822 55.6637 70.0659 55.6092C72.0084 55.173 75.8073 52.4759 77.3711 51.1245C78.2692 50.3498 79.8702 48.2581 80.6708 47.7933C81.061 47.5666 81.3393 47.5063 81.7898 47.5637C70.4332 62.5098 47.1232 62.4409 35.6289 47.6814C35.7752 47.403 36.3778 47.5752 36.6045 47.6871C37.4423 48.1031 40.2484 51.3483 41.5425 52.3238C42.607 53.1272 44.1105 54.0913 45.2869 54.7168C45.4648 54.8115 48.4345 56.2117 47.4187 55.2849C46.7674 54.691 45.855 54.1688 45.2008 53.5748C43.2353 51.7902 41.5453 49.7472 40.0476 47.5608C41.9987 47.3629 43.5395 48.9582 45.3242 49.5263C45.5882 48.8865 45.964 48.2495 45.6972 47.5608C48.6038 47.3428 49.8748 49.9452 52.8159 49.2767L52.3252 47.5637C53.7312 47.2108 53.2606 48.4302 53.6795 49.5234C53.7943 49.8276 54.7297 51.8475 54.8387 51.9221C55.4039 52.321 57.4641 52.189 58.2187 52.2234V47.5608C58.2187 47.5121 59.2 47.5121 59.2 47.5608V52.2234L59.1971 52.2292Z" fill="#58ACAC"/>
<path d="M74.9114 49.2855L73.1927 51.6153C70.7681 53.5865 68.2891 56.1287 65.0898 56.6452C66.3868 54.8892 68.4412 54.3555 70.0049 53.0901C70.9891 52.2925 71.6318 50.9037 72.2171 50.393C72.3663 50.2639 74.8052 49.185 74.9114 49.2826V49.2855Z" fill="#F0F9E7"/>
<path d="M52.0748 56.6446C49.0075 55.9158 46.692 53.6577 44.3306 51.7467L42.5 49.2849C42.6262 49.1673 45.4754 50.4584 45.6792 50.6449C46.362 51.2762 46.9474 53.4425 47.7622 53.9618C48.4566 54.4066 49.1797 54.0135 49.8626 54.3176C50.3704 54.5414 51.5956 56.1511 52.0748 56.6446Z" fill="#F0F9E7"/>
<path d="M59.1992 57.8756V52.9663C60.2666 53.0724 61.3311 52.8859 62.387 52.8343C62.7141 52.8171 62.737 52.5703 62.6395 53.0896C62.3411 54.6563 60.7601 57.2931 59.1992 57.8756Z" fill="#F2FAE8"/>
<path d="M58.2152 52.9663V57.8756C57.2081 57.6088 55.6042 55.6175 55.4033 54.7137C55.3115 54.3063 55.6472 53.609 55.2656 53.0926L58.2152 52.9663Z" fill="#F2FAE8"/>
<path d="M65.3349 52.4784C64.9419 53.0351 64.1356 53.6405 64.8386 54.3234C65.2202 54.6935 66.0293 54.4467 65.8227 55.1698C64.2934 56.0277 62.9908 57.3591 61.1602 57.6259C61.361 57.0205 61.8861 56.6159 62.1902 56.0822C63.1027 54.4898 63.117 52.18 65.3349 52.4784Z" fill="#F1F9E7"/>
<path d="M54.9783 55.4657C55.093 55.5374 55.7587 57.302 56.2494 57.5086C55.1676 57.5717 53.7847 56.6736 52.8349 56.0137C52.548 55.8128 50.0001 53.724 50.3587 53.46C52.0746 52.9034 52.5193 54.7828 53.6125 55.2361C54.0859 55.4341 54.7745 55.3337 54.9811 55.4628L54.9783 55.4657Z" fill="#EFF8E7"/>
<path d="M91.7323 14.1855C92.0967 14.2371 92.5874 14.7995 93.0838 14.6732C92.1168 11.672 87.8301 13.3964 85.9651 11.1153C87.5719 10.8026 89.2533 10.4927 90.8744 10.992C89.721 8.12555 85.4974 10.2345 83.5119 8.16859C85.1043 7.65212 86.7398 7.43406 88.4212 7.55457C87.7814 6.55319 86.3438 6.54745 85.3052 5.88752C83.6898 4.86032 83.2077 3.30517 82.7773 1.54057C84.9752 0.960977 87.1874 2.4157 87.9851 4.43567C88.3351 5.32801 88.1314 6.42981 89.0352 7.06679C89.1385 5.52025 89.4484 4.00814 89.8874 2.51612C89.9677 2.24067 89.9706 1.77011 90.3809 2.16033C90.5846 2.35257 91.1097 4.28933 91.1327 4.72833C91.2388 6.68231 89.9677 8.96625 91.4885 10.5013C91.982 9.12406 92.2144 7.57178 92.8887 6.25765C93.3879 5.28497 93.7351 6.73969 93.7954 7.21025C94.1224 9.8299 92.4267 12.0392 93.5773 14.4265L94.9201 11.233L96.0276 9.76391C97.4795 12.7107 93.715 15.9759 95.7838 18.3545C95.8497 16.6989 97.1094 15.1926 98.1193 13.9387C99.5425 16.8912 95.9789 19.3272 96.7679 22.2825L99.9557 18.1106C100.969 20.604 98.6789 22.4949 97.9386 24.5579C97.7693 25.0313 97.8726 26.4832 97.3819 26.2048C96.877 23.9324 92.3234 23.4044 91.609 21.6628C91.3507 21.0344 92.6362 21.3386 92.8887 21.3672C94.1856 21.5165 95.1296 21.9784 96.2715 22.5236C96.0592 20.1593 93.1584 20.0732 91.477 19.0948C90.9289 18.7763 89.259 17.6458 90.7539 17.6056C92.0049 17.5712 93.7322 17.9413 94.7967 18.5984C94.4696 15.3705 89.5 16.8567 88.1687 14.1797C89.2906 14.2887 90.6449 14.0276 91.7295 14.1797L91.7323 14.1855Z" fill="#58ADAC"/>
<path d="M101.429 22.7788C101.65 23.3527 101.013 25.9494 100.654 26.1732C100.296 26.397 98.7978 26.1014 98.2383 26.2133L99.0933 24.9853L101.429 22.7817V22.7788Z" fill="#5AAEAD"/>
<path d="M28.7482 14.1852C29.2274 14.6099 27.3595 15.5223 27.1213 15.6256C25.3682 16.386 22.694 16.2482 22.1202 18.3543C22.3182 18.5064 26.3064 17.1521 27.0295 17.7403C25.6063 20.248 21.2537 19.4618 20.6482 22.5262C21.3742 22.3311 21.8218 21.8864 22.6022 21.6597C23.3941 21.4301 24.7656 21.2236 25.5576 21.4244C24.3209 23.4071 21.4115 23.6194 20.1461 25.3524C19.7588 25.8833 20.1978 26.4198 19.1763 26.2104C19.8133 24.3482 17.6843 22.6525 17.1994 20.9481C16.9411 20.0414 16.9067 19.2925 16.967 18.36L18.5393 19.852L20.1547 22.5291C21.1446 19.6053 18.1606 17.5652 18.6828 14.5525C18.743 14.1967 18.9841 13.7118 19.2853 14.1996L21.6267 18.36C22.9982 16.0416 19.4661 12.1423 21.0126 10.0133C21.357 9.53701 21.509 10.0736 21.6812 10.3347C22.453 11.5283 22.9982 13.0404 23.2277 14.432C24.8603 12.7965 23.1646 10.3232 23.0986 8.40651C23.0843 7.99621 23.4286 6.01354 23.6007 5.84425C24.1057 5.34213 24.4127 7.40514 24.6997 7.56582L25.5604 10.7507C27.5087 8.286 24.582 4.41822 27.0352 2.16298L28.1428 7.06943C28.8544 6.4841 28.6937 5.51142 28.9921 4.72524C29.8385 2.49581 31.738 1.15299 34.1625 1.42557C34.2888 3.13853 33.0722 5.0179 31.6892 5.95042C30.6419 6.65626 29.0466 6.45254 28.7597 7.56008C30.355 7.48835 31.936 7.54573 33.4222 8.1741C31.4597 10.349 27.4054 8.09089 26.0568 10.9946C27.7095 10.5212 29.1929 10.8684 30.8428 10.9946C31.7294 11.0864 29.6061 12.1825 29.2044 12.3001C27.2705 12.8768 24.78 12.3747 23.8475 14.673C24.3037 14.8222 24.9206 14.1852 25.1989 14.1852H28.7597H28.7482Z" fill="#58ADAC"/>
<path d="M18.6814 26.2106C17.9613 26.1303 16.9054 26.4574 16.3487 25.9696C15.9155 25.5909 15.069 22.7618 15.8609 22.7818C16.0848 22.7876 18.977 25.9581 18.6843 26.2106H18.6814Z" fill="#5CAFAE"/>
<path d="M24.3258 24.988C24.0733 26.965 22.105 26.021 20.6445 26.2103C20.699 25.8316 21.4938 25.6623 21.8181 25.5475C22.1882 25.4155 24.1479 24.8273 24.3258 24.988Z" fill="#5EB1AF"/>
<path d="M96.2749 26.2106C95.0239 26.0729 92.7686 26.8418 92.8375 24.9883C92.9666 24.8563 96.0798 25.6138 96.2749 26.2106Z" fill="#5DB0AF"/>
<path d="M66.5618 26.2133H65.8273C65.8187 24.991 65.9392 23.7458 65.5461 22.5665L62.037 22.2709C61.8533 23.6281 60.5851 24.859 59.1993 24.2507C59.0702 25.4243 59.7645 26.5347 58.2151 26.2162C58.1319 25.803 58.3356 24.1561 58.2008 24.0183C58.129 23.9437 56.4189 23.7343 56.1263 23.74C54.7347 23.7687 53.7591 24.6438 52.5626 25.1173C52.2786 25.2292 51.633 25.2005 51.5928 25.2435C51.4752 25.364 51.6703 26.1273 51.5842 26.2191C51.5584 26.2449 50.8755 26.2449 50.8497 26.2191C50.8124 26.1789 50.9243 25.5735 50.7234 25.2464C50.5226 24.9193 50.0262 24.9968 49.7737 24.2077C49.5442 23.4933 49.9631 23.1145 49.7421 22.5321C48.6317 23.0342 44.1901 22.8878 43.467 23.3785C43.1342 23.6052 42.9764 25.6969 42.9936 26.2219H42.2591L42.3767 23.5162C41.6164 23.7945 36.3484 24.7672 36.1418 25.014C36.0012 25.1833 36.1791 25.9121 36.116 26.2191H35.1347C35.0142 26.1387 35.8003 25.3525 35.0084 25.4759C34.1075 25.6194 33.0889 26.5576 31.9412 26.2133C32.4089 25.2206 34.7301 25.1115 35.2494 24.4918C35.7774 23.8605 35.9438 20.7875 36.2336 19.8321C34.1792 20.8707 32.5954 22.8505 31.3444 24.7615C30.8049 25.5878 30.9742 26.4285 29.8523 26.2162C29.4765 26.1445 29.4679 26.3855 29.4736 25.8461C29.4822 24.7012 30.0733 22.5292 30.4004 21.3643C32.8593 12.6302 39.4357 5.3365 47.9029 2.04258C66.0454 -5.01871 85.872 7.00068 87.9236 26.2162C86.4029 26.5175 86.707 25.7514 86.0614 24.7643C85.7888 24.3483 84.0214 21.8033 83.8349 21.7803C83.2868 21.7114 82.34 22.314 81.5394 21.5536C81.4648 21.6541 81.7948 23.74 81.8923 24.0212C82.3141 25.2177 84.7903 25.0599 85.4646 26.2162C84.3169 26.5605 83.2983 25.6223 82.3973 25.4788C81.6054 25.3526 82.3916 26.1416 82.2711 26.2162H81.2898C81.2295 25.9121 81.4074 25.1833 81.264 25.014C81.132 24.8533 77.4622 23.9868 77.224 23.9954C76.7506 24.0126 76.4321 24.3311 75.9816 24.486C75.7406 24.5692 75.2184 24.4401 75.1496 24.5004C75.0635 24.5778 75.2098 25.8834 75.1496 26.2191H74.415C74.3662 25.7026 74.2429 23.5736 73.9387 23.3785C73.0148 22.7845 67.9534 22.8821 66.5561 22.5349V26.2162L66.5618 26.2133Z" fill="#58ACAC"/>
<path d="M51.8291 14.1884L50.9856 21.5653C50.7589 21.8953 44.4695 22.2424 43.4824 22.5294C43.2471 22.2883 44.326 16.8482 44.7105 16.5182C45.7578 15.6115 48.7934 16.8166 50.01 15.4336C50.6212 14.7393 50.2482 13.8699 51.8291 14.1884Z" fill="#F3FAE8"/>
<path d="M69.0223 14.6816C69.0481 14.7074 68.8042 15.0804 68.8788 15.419C69.3236 17.4361 71.9805 17.6828 72.913 19.0084C73.6447 20.05 73.5156 21.3928 73.9316 22.529C71.4497 22.1417 68.853 22.0499 66.4256 21.5649L65.582 14.188C65.714 14.0589 68.896 14.561 69.0223 14.6816Z" fill="#F3FAE8"/>
<path d="M65.5834 21.548H61.2852C61.1819 21.548 59.862 20.1822 59.8104 20.0703C59.314 19.0115 60.2637 18.9197 60.5392 18.3487C60.8146 17.7777 60.6252 16.4091 61.509 16.4062C62.0742 16.4062 63.5462 17.1465 63.09 15.5799C62.7399 14.3719 60.1174 14.5957 59.1992 15.1638V13.6919H63.0039C63.3109 13.6919 64.6967 14.0219 64.8058 14.3461C65.4284 16.1824 65.2161 19.5309 65.5834 21.548Z" fill="#F3FAE8"/>
<path d="M65.3869 13.1522C64.8819 12.4521 64.704 8.1425 63.8633 7.07226C64.1531 6.86854 68.8013 7.88139 69.2575 8.18266C69.4412 8.30604 70.893 11.1524 70.893 11.3647C70.893 11.8381 69.4584 13.8724 68.9562 13.8839C68.5947 13.8925 65.493 13.3014 65.3869 13.1551V13.1522Z" fill="#F3FAE8"/>
<path d="M58.2172 13.6948C58.1598 14.9114 58.6705 18.3144 56.8801 18.3172C56.4038 18.3172 55.4627 17.884 55.0553 18.1451C54.7856 18.3201 54.9462 19.6658 54.4326 20.099C53.9563 20.5007 52.4414 20.4921 51.8359 21.0602C52.2462 19.1321 52.0052 16.1366 52.6106 14.3519C52.7197 14.0277 54.1055 13.6977 54.4125 13.6977H58.2172V13.6948Z" fill="#F3FAE8"/>
<path d="M59.1992 6.57617L63.1043 6.84588L64.6049 13.0779L59.1992 12.9574V6.57617Z" fill="#F3FAE8"/>
<path d="M58.2143 6.57617V12.9574L52.8086 13.0779L54.3064 6.84588L58.2143 6.57617Z" fill="#F3FAE8"/>
<path d="M47.1683 3.38519C47.5127 3.06096 47.6389 3.19869 47.4151 3.63195C46.3391 4.46404 45.1742 5.06946 44.0007 5.74086C43.0768 6.81971 42.3451 8.72491 41.2576 9.62586C39.473 11.1064 35.6339 10.6617 35.9925 14.4262L32.4375 18.3571C34.5722 12.7275 39.0397 7.74935 44.2159 4.73088C45.157 4.18285 46.1871 3.83567 47.1683 3.38519Z" fill="#F2F9E8"/>
<path d="M42.4404 22.7186L36.3633 24.2508L37.1007 20.0789C39.8351 22.7444 41.6714 19.2439 43.3614 17.3789C43.4045 18.0704 42.6613 22.5292 42.4404 22.7186Z" fill="#F2FAE8"/>
<path d="M77.1225 7.56025C80.514 10.4439 83.653 14.3117 84.9786 18.6041L82.7779 15.775C81.9831 14.3375 78.7666 12.6647 78.0809 11.6174C77.639 10.9431 78.8929 9.55727 76.8786 7.80414C76.5544 7.45983 76.6893 7.33358 77.1254 7.55738L77.1225 7.56025Z" fill="#F2F9E8"/>
<path d="M68.5295 7.06646C67.574 6.68771 64.1682 6.4926 63.6202 5.96179C63.1094 5.46827 62.1454 1.95915 61.1641 1.17871C64.303 2.04236 66.7161 4.46116 68.5295 7.06359V7.06646Z" fill="#F2F9E8"/>
<path d="M31.936 22.7757C31.8901 22.8159 31.4396 22.8647 31.4454 22.6523C31.4941 21.0915 35.1238 16.0846 36.4752 15.1549C38.0361 14.079 37.4737 17.261 36.8224 18.2078C36.3117 18.951 33.2645 21.0283 32.1799 22.1703C31.9991 22.3597 31.9676 22.7499 31.936 22.7757Z" fill="#F2F9E8"/>
<path d="M56.2504 1.17902C55.3753 1.87339 54.1185 5.74691 53.6537 6.0654C52.7642 6.67942 50.9164 6.37528 50.466 5.34808C50.1245 4.5705 55.1084 1.06425 56.2504 1.17902Z" fill="#F2F9E8"/>
<path d="M59.1992 0.932129C60.6712 1.43138 62.387 4.26909 62.6395 5.71808C62.7055 6.09969 62.6854 6.11404 62.3181 6.0423C61.2307 5.82998 60.301 5.77833 59.1992 5.84146V0.932129Z" fill="#F2FAE8"/>
<path d="M58.2158 0.932129V5.84146C57.114 5.77833 56.1844 5.82998 55.0969 6.0423C54.7297 6.11404 54.7096 6.09969 54.7756 5.71808C55.0281 4.26909 56.7439 1.43138 58.2158 0.932129Z" fill="#F2F9E8"/>
<path d="M52.0252 13.1494C51.0038 14.5668 47.7902 11.5885 49.5232 10.2801C50.3037 9.69192 51.9363 9.86408 52.8114 9.27588C52.5273 9.99607 52.3121 12.7506 52.0252 13.1494Z" fill="#F1F9E8"/>
<path d="M65.0898 2.16002C66.2089 1.86161 71.7035 5.4855 71.715 5.9618C71.3535 6.45532 70.7567 6.26021 70.2545 6.45819C70.0106 6.55574 69.7381 7.06073 69.6348 7.06073C69.3737 7.06647 68.0165 4.98625 67.6722 4.60751C66.8745 3.72664 65.942 2.98063 65.0898 2.15715V2.16002Z" fill="#F0F9E7"/>
<path d="M80.5438 21.0772C80.6672 21.1805 81.2124 24.0268 81.0517 24.2478L77.6172 23.2636C77.7922 22.3655 79.6659 20.3283 80.5438 21.0772Z" fill="#F1F9E7"/>
<path d="M77.3662 12.7134L79.0877 16.6385C76.5427 17.0804 74.7752 13.8037 77.3662 12.7134Z" fill="#F1F9E7"/>
<path d="M82.5235 17.1292C81.8951 16.782 80.4748 17.0488 80.0588 16.7734C79.6657 16.5151 79.0144 13.7176 78.3516 13.204C78.8307 13.1007 79.0115 13.313 79.3443 13.5569C79.901 13.9644 81.7144 15.815 82.1591 16.3889C82.3485 16.6357 82.6354 16.7017 82.5235 17.1263V17.1292Z" fill="#F0F8E7"/>
<path d="M76.14 6.8229C76.4642 7.16721 76.3293 7.29346 75.8932 7.06966C75.1472 6.71387 73.9622 6.63353 73.2104 6.19166C72.3181 5.66945 71.047 4.34958 69.9997 3.63227C69.6755 3.28795 69.8103 3.16171 70.2465 3.38551C72.6911 4.40123 74.054 5.2161 76.14 6.8229Z" fill="#EFF8E7"/>
<path d="M52.0766 2.16016L49.6119 4.74537L47.4141 4.61052L49.8616 3.01233L52.0766 2.16016Z" fill="#EDF7E6"/>
<path d="M85.9598 23.023C85.1047 21.9499 83.8222 21.4937 84.7375 20.0791L85.7704 21.8638L85.9598 23.023Z" fill="#E6F4E3"/>
<path d="M77.1226 7.56016L76.8758 7.80691C76.7209 7.67206 76.0122 7.1269 75.8945 7.06951L76.1413 6.82275C76.4713 7.07525 76.7984 7.28184 77.1226 7.56016Z" fill="#DBEFE0"/>
<path d="M70.2469 3.3855L70.0001 3.63225C69.7648 3.47157 68.7749 3.00962 69.0188 2.89772C69.63 2.68539 69.9628 3.26786 70.244 3.3855H70.2469Z" fill="#D2EBDD"/>
<path d="M53.5516 7.06934L53.302 7.80387L52.5703 7.18984L53.5516 7.06934Z" fill="#E8F5E5"/>
<path d="M47.1669 3.38539C47.4481 3.25627 47.6604 2.73407 48.1482 2.89761C48.0708 3.26775 47.6748 3.42843 47.4108 3.63215L47.1641 3.38539H47.1669Z" fill="#D0EBDC"/>
<path d="M108.517 27.9635C108.945 32.1497 111.421 35.4695 115.61 36.4622C116.256 36.6143 117.587 36.1667 117.395 37.0103C112.253 37.2714 109.031 40.9297 108.403 45.862H9.01109C8.38272 40.9297 5.16053 37.2685 0.0187891 37.0103C-0.173452 36.1667 1.15789 36.6143 1.80348 36.4622C4.58093 35.8052 7.20345 33.7594 8.17039 31.045C8.36551 30.4941 8.7213 27.9921 9.02257 27.9204L108.517 27.9635Z" fill="#23445E"/>
<path d="M81.0183 32.8729C81.311 33.0594 82.5935 38.2672 83.1387 38.9788C83.4486 38.973 84.625 33.6534 85.0984 33.0824C85.5202 32.5745 87.0208 32.9447 87.6779 32.8414C86.9175 35.3204 86.9146 38.4479 87.6779 40.9385H85.2246C85.8329 39.4493 85.7583 38.1151 85.7124 36.5227C84.8459 36.9731 84.3581 40.5741 83.9679 40.9098C83.8761 40.9901 82.4587 40.9987 82.3095 40.904C82.1115 40.7807 81.1531 37.0363 80.6797 36.5169C80.3584 38.0491 80.5133 39.4981 81.047 40.9356H78.5938C79.357 38.4451 79.3541 35.3176 78.5938 32.8385C79.1332 32.9504 80.6797 32.6577 81.0126 32.8701L81.0183 32.8729Z" fill="#FDFDFD"/>
<path d="M23.1034 34.8039C23.399 33.7996 22.3201 33.9316 21.5598 34.121C19.7693 34.56 19.6775 38.7434 21.3847 39.5927C23.0977 40.4449 23.8724 39.1767 23.597 37.5039C22.4464 37.4637 21.9041 37.9171 22.1222 36.5255C22.7907 36.6316 24.8709 36.2701 25.2095 36.7521C25.4821 39.1394 24.9455 40.8494 22.2513 40.9556C16.1828 41.1995 18.0994 29.7482 24.3286 33.4697C24.3975 33.8915 23.4076 35.131 23.1092 34.8039H23.1034Z" fill="#FCFDFD"/>
<path d="M94.3126 32.8383V34.5541C93.2308 33.9774 92.3328 34.0004 91.119 34.0635V36.2757C92.0085 36.511 92.5078 35.7908 93.3284 35.7851C93.4891 38.597 92.9812 37.3574 91.119 37.2541V39.7102C91.8507 39.6299 92.7459 39.8336 93.446 39.7016C93.9223 39.6127 94.0687 39.1507 94.5564 39.2167V40.9325H89.2799C88.3674 40.9325 89.4118 39.9455 89.4233 39.848C89.5696 38.7605 89.5381 35.544 89.4176 34.4164C89.3745 34.0291 88.5453 32.8354 89.2799 32.8354H94.3126V32.8383Z" fill="#FAFBFB"/>
<path d="M73.6839 32.8384C73.6266 33.1741 73.7672 34.4739 73.6839 34.5571C73.2564 34.9789 72.849 34.0808 72.783 34.0693C72.3669 33.9918 71.8993 34.098 71.4746 34.0664V39.8337C71.4746 39.8968 72.212 40.462 71.9652 40.9383C71.2881 40.8465 69.6038 41.231 69.2681 40.5682C69.0443 40.1235 69.7157 40.3587 69.7789 39.8538C69.9969 38.1035 69.5751 35.8769 69.7559 34.0664C68.8664 33.8311 68.3672 34.5513 67.5466 34.5571C67.5007 34.2128 67.4806 32.8413 67.9138 32.8413H73.6839V32.8384Z" fill="#F9FAFA"/>
<path d="M57.2333 40.9386C57.9994 38.4481 57.9966 35.3206 57.2333 32.8415C57.7756 32.9534 59.3078 32.6579 59.6435 32.8817C60.467 33.4297 59.1959 33.863 59.1959 33.9462V39.7134C59.985 39.6187 60.9835 39.8512 61.7324 39.7077C61.7984 39.6962 62.2058 38.7981 62.6333 39.2199C62.7165 39.3031 62.5788 40.6029 62.6333 40.9386H57.2305H57.2333Z" fill="#FBFBFC"/>
<path d="M26.5391 40.9384C27.3052 38.4479 27.3023 35.3204 26.5391 32.8413H28.9923C29.239 33.3176 28.5016 33.8829 28.5016 33.946V39.7132C29.1788 39.6644 29.9133 39.7993 30.5819 39.7046C30.9635 39.6501 31.3021 39.1738 31.566 39.2197C32.1341 39.3201 32.028 40.9384 31.5718 40.9384H26.5391Z" fill="#FAFBFC"/>
<path d="M76.9527 40.1466C77.0158 40.247 77.3372 40.1351 77.3745 40.3274C77.3831 41.3259 75.3086 40.841 74.6687 40.9385C75.211 39.1625 75.4348 36.2731 75.1737 34.4224C75.102 33.9174 74.6314 33.3981 74.6659 33.2145C74.772 32.6549 77.2654 32.6578 77.3716 33.2145C77.4089 33.4067 76.9297 33.906 76.8637 34.4224C76.7834 35.0422 76.8006 39.9056 76.9527 40.1466Z" fill="#F7F9F9"/>
<path d="M41.0266 40.9383C41.6034 39.1479 41.744 36.5569 41.5345 34.6632C41.4714 34.0894 41.0094 33.2917 41.0238 33.2142C41.1615 32.4654 44.9604 32.9216 45.6949 33.2028C48.2859 34.1984 46.0536 36.8238 46.1856 37.0046C46.2258 37.0591 46.9173 37.105 47.2243 37.8079C47.8985 39.3545 46.659 40.9355 45.078 40.9355H41.0266V40.9383Z" fill="#FDFDFD"/>
<path d="M45.6567 37.7824C45.8633 38.1153 45.7084 39.2027 45.3468 39.4897C44.7959 39.9287 43.6855 39.6389 42.9883 39.7135V37.5013C43.4961 37.5013 45.43 37.4209 45.6538 37.7824H45.6567Z" fill="#284963"/>
<path d="M45.147 34.3736C46.1972 35.5586 44.292 36.7924 42.9922 36.2788V34.0666C43.5316 34.0752 44.7912 33.969 45.147 34.3736Z" fill="#2B4B65"/>
<path d="M38.7332 33.6594C40.6958 35.5646 40.0761 40.5026 36.9514 40.9158C31.3477 41.6618 31.5543 33.3897 35.5225 32.8617C36.5612 32.724 37.9585 32.9047 38.7332 33.6594Z" fill="#FCFDFD"/>
<path d="M37.5282 39.4036C37.247 39.6647 36.3345 39.8971 35.9185 39.7995C33.3362 39.1798 33.8928 32.7468 37.0949 34.1958C38.432 34.8012 38.3947 38.603 37.5282 39.4036Z" fill="#22445F"/>
<path d="M56.1874 40.2524C56.8731 41.4202 54.3338 40.7947 53.5505 40.9382C53.3066 40.7086 55.054 38.0259 51.4588 38.726C50.0385 39.0043 51.2608 40.7746 51.0944 40.9382C50.2652 40.7947 47.6341 41.4432 48.5694 40.195C49.3757 39.1219 50.8333 35.6644 51.0026 34.313C51.0801 33.6904 50.2681 33.303 50.839 32.953C51.2321 32.712 52.8389 32.7234 53.1861 33.0764C53.9092 33.8138 54.724 38.3673 55.4528 39.6499C55.6939 40.0745 56.1415 40.1749 56.1845 40.2524H56.1874Z" fill="#FCFCFD"/>
<path d="M53.0585 37.7477H51.3398L52.0801 35.2944C52.6081 35.3805 53.1704 37.6386 53.0585 37.7477Z" fill="#2A4A64"/>
<path d="M106.311 43.0993H10.9331C9.98621 40.2415 7.76253 38.2961 4.87891 36.827C7.74244 35.1342 9.79397 33.0712 10.9331 30.5835H106.311C107.972 33.8516 109.937 36.0351 112.284 36.8443C109.564 37.7366 107.539 39.7652 106.311 43.0993Z" stroke="#F3FAE8" stroke-miterlimit="10"/>
<path d="M93.9079 55.0063C75.4412 75.1486 46.3066 80.7867 23.7656 54.8055C25.8372 53.3536 26.9276 52.2202 26.5402 49.5317H32.1927C46.2493 67.6828 72.9823 66.2596 84.9787 49.5317L91.0042 49.5432C90.8693 51.6091 91.5493 53.3938 93.9079 55.0092V55.0063Z" stroke="#F3FAE8" stroke-miterlimit="10"/>
</svg>
